<svg xmlns="http://www.w3.org/2000/svg" viewBox="0 0 120 100" width="120" height="100">
    <!-- Background rounded rectangle -->
    <rect x="5" y="5" width="110" height="90" rx="20" ry="20" fill="#ffffff" stroke="#e0e0e0" stroke-width="2" />

    <!-- Stylized "G" for Google -->
    <path d="M60 25 A25 25 0 0 1 85 50 L70 50 A10 10 0 0 0 60 40 L60 25" fill="#4285F4" />
    <path d="M85 50 A25 25 0 0 1 60 75 L60 60 A10 10 0 0 0 70 50 L85 50" fill="#34A853" />
    <path d="M60 75 A25 25 0 0 1 35 50 L50 50 A10 10 0 0 0 60 60 L60 75" fill="#FBBC05" />
    <path d="M35 50 A25 25 0 0 1 60 25 L60 40 A10 10 0 0 0 50 50 L35 50" fill="#EA4335" />
</svg>
