<svg xmlns="http://www.w3.org/2000/svg" viewBox="0 0 100 100" width="100" height="100">
    <!-- Background rounded rectangle -->
    <rect x="5" y="5" width="90" height="90" rx="20" ry="20" fill="#ffffff" stroke="#e0e0e0"
        stroke-width="2" />

    <!-- Stylized "G" for Google -->
    <path d="M50 25 A25 25 0 0 1 75 50 L60 50 A10 10 0 0 0 50 40 L50 25" fill="#4285F4" />
    <path d="M75 50 A25 25 0 0 1 50 75 L50 60 A10 10 0 0 0 60 50 L75 50" fill="#34A853" />
    <path d="M50 75 A25 25 0 0 1 25 50 L40 50 A10 10 0 0 0 50 60 L50 75" fill="#FBBC05" />
    <path d="M25 50 A25 25 0 0 1 50 25 L50 40 A10 10 0 0 0 40 50 L25 50" fill="#EA4335" />

    <!-- Login icon -->
    <circle cx="50" cy="50" r="8" fill="#ffffff" />
    <path d="M50 62 L50 80 M42 72 L50 80 L58 72" fill="none" stroke="#4285F4" stroke-width="4"
        stroke-linecap="round" stroke-linejoin="round" />
</svg>